Barlow-Light Condensed.ufo
<glyph name="quotedbl" format="1">
  <advance width="155"/>
  <unicode hex="0022"/>
  <outline>
    <contour>
      <point x="124" y="500" type="line"/>
      <point x="127" y="692" type="line"/>
      <point x="102" y="692" type="line"/>
      <point x="104" y="500" type="line"/>
    </contour>
    <contour>
      <point x="50" y="500" type="line"/>
      <point x="53" y="692" type="line"/>
      <point x="28" y="692" type="line"/>
      <point x="31" y="500" type="line"/>
    </contour>
  </outline>
</glyph>
<glyph name="dollar" format="1">
  <advance width="387"/>
  <unicode hex="0024"/>
  <outline>
    <contour>
      <point x="207" y="-88" type="line"/>
      <point x="207" y="2" type="line"/>
      <point x="187" y="2" type="line"/>
      <point x="187" y="-88" type="line"/>
    </contour>
    <contour>
      <point x="202" y="702" type="line"/>
      <point x="202" y="792" type="line"/>
      <point x="182" y="792" type="line"/>
      <point x="182" y="702" type="line"/>
    </contour>
    <component base="S"/>
  </outline>
</glyph>
<glyph name="comma" format="1">
  <advance width="202"/>
  <unicode hex="002C"/>
  <outline>
    <contour>
      <point x="82" y="-66" type="line"/>
      <point x="125" y="153" type="line"/>
      <point x="104" y="153" type="line"/>
      <point x="62" y="-66" type="line"/>
    </contour>
  </outline>
</glyph>
<glyph name="hyphen" format="1">
  <advance width="229"/>
  <unicode hex="002D"/>
  <outline>
    <contour>
      <point x="212" y="251" type="line"/>
      <point x="212" y="272" type="line"/>
      <point x="17" y="272" type="line"/>
      <point x="17" y="251" type="line"/>
    </contour>
  </outline>
</glyph>
<glyph name="period" format="1">
  <advance width="248"/>
  <unicode hex="002E"/>
  <outline>
    <contour>
      <point x="141" y="7"/>
      <point x="157" y="25"/>
      <point x="157" y="48" type="curve" smooth="yes"/>
      <point x="157" y="70"/>
      <point x="141" y="88"/>
      <point x="123" y="88" type="curve" smooth="yes"/>
      <point x="105" y="88"/>
      <point x="89" y="70"/>
      <point x="89" y="48" type="curve" smooth="yes"/>
      <point x="89" y="25"/>
      <point x="104" y="7"/>
      <point x="123" y="7" type="curve" smooth="yes"/>
    </contour>
  </outline>
</glyph>
<glyph name="slash" format="1">
  <advance width="179"/>
  <unicode hex="002F"/>
  <outline>
    <contour>
      <point x="22" y="0" type="line"/>
      <point x="179" y="700" type="line"/>
      <point x="157" y="700" type="line"/>
      <point x="0" y="0" type="line"/>
    </contour>
  </outline>
</glyph>
<glyph name="zero" format="1">
  <advance width="432"/>
  <unicode hex="0030"/>
  <outline>
    <contour>
      <point x="306" y="-9"/>
      <point x="368" y="56"/>
      <point x="368" y="154" type="curve" smooth="yes"/>
      <point x="368" y="546" type="line" smooth="yes"/>
      <point x="368" y="644"/>
      <point x="306" y="709"/>
      <point x="215" y="709" type="curve" smooth="yes"/>
      <point x="124" y="709"/>
      <point x="64" y="644"/>
      <point x="64" y="546" type="curve" smooth="yes"/>
      <point x="64" y="154" type="line" smooth="yes"/>
      <point x="64" y="56"/>
      <point x="124" y="-9"/>
      <point x="215" y="-9" type="curve" smooth="yes"/>
    </contour>
    <contour>
      <point x="138" y="12"/>
      <point x="86" y="68"/>
      <point x="86" y="152" type="curve" smooth="yes"/>
      <point x="86" y="548" type="line" smooth="yes"/>
      <point x="86" y="632"/>
      <point x="138" y="688"/>
      <point x="215" y="688" type="curve" smooth="yes"/>
      <point x="294" y="688"/>
      <point x="346" y="632"/>
      <point x="346" y="548" type="curve" smooth="yes"/>
      <point x="346" y="152" type="line" smooth="yes"/>
      <point x="346" y="68"/>
      <point x="294" y="12"/>
      <point x="215" y="12" type="curve" smooth="yes"/>
    </contour>
  </outline>
</glyph>
<glyph name="one" format="1">
  <advance width="205"/>
  <unicode hex="0031"/>
  <outline>
    <contour>
      <point x="145" y="0" type="line"/>
      <point x="145" y="700" type="line"/>
      <point x="123" y="700" type="line"/>
      <point x="123" y="0" type="line"/>
    </contour>
    <contour>
      <point x="54" y="637" type="line"/>
      <point x="123" y="669" type="line"/>
      <point x="123" y="700" type="line"/>
      <point x="54" y="658" type="line"/>
    </contour>
  </outline>
</glyph>
<glyph name="two" format="1">
  <advance width="368"/>
  <unicode hex="0032"/>
  <outline>
    <contour>
      <point x="328" y="0" type="line"/>
      <point x="328" y="21" type="line"/>
      <point x="83" y="21" type="line"/>
      <point x="250" y="323" type="line" smooth="yes"/>
      <point x="298" y="410"/>
      <point x="322" y="485"/>
      <point x="322" y="544" type="curve" smooth="yes"/>
      <point x="322" y="642"/>
      <point x="268" y="708"/>
      <point x="187" y="708" type="curve" smooth="yes"/>
      <point x="109" y="708"/>
      <point x="56" y="642"/>
      <point x="56" y="544" type="curve" smooth="yes"/>
      <point x="56" y="500" type="line"/>
      <point x="79" y="500" type="line"/>
      <point x="79" y="544" type="line"/>
      <point x="78" y="630"/>
      <point x="121" y="687"/>
      <point x="187" y="687" type="curve" smooth="yes"/>
      <point x="255" y="687"/>
      <point x="300" y="630"/>
      <point x="300" y="544" type="curve" smooth="yes"/>
      <point x="300" y="490"/>
      <point x="276" y="420"/>
      <point x="229" y="335" type="curve" smooth="yes"/>
      <point x="56" y="21" type="line"/>
      <point x="56" y="0" type="line"/>
    </contour>
  </outline>
</glyph>
<glyph name="three" format="1">
  <advance width="389"/>
  <unicode hex="0033"/>
  <outline>
    <contour>
      <point x="56" y="700" type="line"/>
      <point x="56" y="679" type="line"/>
      <point x="299" y="679" type="line"/>
      <point x="154" y="416" type="line"/>
      <point x="165" y="404" type="line"/>
      <point x="173" y="406"/>
      <point x="181" y="407"/>
      <point x="190" y="407" type="curve" smooth="yes"/>
      <point x="257" y="407"/>
      <point x="301" y="350"/>
      <point x="301" y="265" type="curve" smooth="yes"/>
      <point x="301" y="155" type="line" smooth="yes"/>
      <point x="301" y="70"/>
      <point x="257" y="13"/>
      <point x="190" y="13" type="curve" smooth="yes"/>
      <point x="123" y="13"/>
      <point x="78" y="70"/>
      <point x="78" y="155" type="curve" smooth="yes"/>
      <point x="78" y="201" type="line"/>
      <point x="56" y="201" type="line"/>
      <point x="56" y="158" type="line" smooth="yes"/>
      <point x="56" y="58"/>
      <point x="109" y="-8"/>
      <point x="190" y="-8" type="curve" smooth="yes"/>
      <point x="270" y="-8"/>
      <point x="323" y="58"/>
      <point x="323" y="158" type="curve" smooth="yes"/>
      <point x="323" y="262" type="line" smooth="yes"/>
      <point x="323" y="364"/>
      <point x="267" y="446"/>
      <point x="181" y="426" type="curve"/>
      <point x="183" y="419" type="line"/>
      <point x="325" y="679" type="line"/>
      <point x="325" y="700" type="line"/>
    </contour>
  </outline>
</glyph>
<glyph name="four" format="1">
  <advance width="339"/>
  <unicode hex="0034"/>
  <outline>
    <contour>
      <point x="251" y="-7" type="line"/>
      <point x="273" y="-7" type="line"/>
      <point x="273" y="415" type="line"/>
      <point x="251" y="415" type="line"/>
    </contour>
    <contour>
      <point x="48" y="222" type="line"/>
      <point x="214" y="700" type="line"/>
      <point x="190" y="700" type="line"/>
      <point x="24" y="222" type="line"/>
      <point x="24" y="202" type="line"/>
      <point x="315" y="202" type="line"/>
      <point x="315" y="222" type="line"/>
    </contour>
  </outline>
</glyph>
<glyph name="five" format="1">
  <advance width="339"/>
  <unicode hex="0035"/>
  <outline>
    <contour>
      <point x="252" y="-9"/>
      <point x="303" y="57"/>
      <point x="303" y="157" type="curve" smooth="yes"/>
      <point x="303" y="262" type="line" smooth="yes"/>
      <point x="303" y="362"/>
      <point x="253" y="428"/>
      <point x="177" y="428" type="curve" smooth="yes"/>
      <point x="110" y="428"/>
      <point x="62" y="381"/>
      <point x="62" y="311" type="curve"/>
      <point x="62" y="307" type="line"/>
      <point x="79" y="307" type="line"/>
      <point x="79" y="311" type="line" smooth="yes"/>
      <point x="79" y="369"/>
      <point x="121" y="407"/>
      <point x="175" y="407" type="curve" smooth="yes"/>
      <point x="239" y="407"/>
      <point x="281" y="350"/>
      <point x="281" y="265" type="curve" smooth="yes"/>
      <point x="281" y="154" type="line" smooth="yes"/>
      <point x="281" y="69"/>
      <point x="239" y="12"/>
      <point x="175" y="12" type="curve" smooth="yes"/>
      <point x="112" y="12"/>
      <point x="70" y="69"/>
      <point x="70" y="154" type="curve" smooth="yes"/>
      <point x="70" y="158" type="line"/>
      <point x="48" y="158" type="line"/>
      <point x="48" y="157" type="line" smooth="yes"/>
      <point x="48" y="57"/>
      <point x="99" y="-9"/>
      <point x="175" y="-9" type="curve" smooth="yes"/>
    </contour>
    <contour>
      <point x="79" y="310" type="line"/>
      <point x="80" y="679" type="line"/>
      <point x="301" y="679" type="line"/>
      <point x="301" y="700" type="line"/>
      <point x="58" y="700" type="line"/>
      <point x="59" y="310" type="line"/>
    </contour>
  </outline>
</glyph>
<glyph name="six" format="1">
  <advance width="365"/>
  <unicode hex="0036"/>
  <outline>
    <contour>
      <point x="270" y="-8"/>
      <point x="323" y="58"/>
      <point x="323" y="158" type="curve" smooth="yes"/>
      <point x="323" y="262" type="line" smooth="yes"/>
      <point x="323" y="362"/>
      <point x="270" y="428"/>
      <point x="190" y="428" type="curve" smooth="yes"/>
      <point x="134" y="428"/>
      <point x="93" y="395"/>
      <point x="73" y="340" type="curve"/>
      <point x="76" y="340" type="line"/>
      <point x="76" y="545" type="line" smooth="yes"/>
      <point x="76" y="630"/>
      <point x="121" y="687"/>
      <point x="189" y="687" type="curve" smooth="yes"/>
      <point x="256" y="687"/>
      <point x="301" y="630"/>
      <point x="301" y="545" type="curve" smooth="yes"/>
      <point x="301" y="500" type="line"/>
      <point x="323" y="500" type="line"/>
      <point x="323" y="542" type="line" smooth="yes"/>
      <point x="323" y="642"/>
      <point x="270" y="708"/>
      <point x="189" y="708" type="curve" smooth="yes"/>
      <point x="107" y="708"/>
      <point x="54" y="642"/>
      <point x="54" y="542" type="curve" smooth="yes"/>
      <point x="54" y="158" type="line" smooth="yes"/>
      <point x="54" y="58"/>
      <point x="107" y="-8"/>
      <point x="189" y="-8" type="curve" smooth="yes"/>
    </contour>
    <contour>
      <point x="121" y="13"/>
      <point x="76" y="70"/>
      <point x="76" y="155" type="curve" smooth="yes"/>
      <point x="76" y="265" type="line" smooth="yes"/>
      <point x="76" y="350"/>
      <point x="121" y="407"/>
      <point x="189" y="407" type="curve" smooth="yes"/>
      <point x="256" y="407"/>
      <point x="301" y="350"/>
      <point x="301" y="265" type="curve" smooth="yes"/>
      <point x="301" y="155" type="line" smooth="yes"/>
      <point x="301" y="70"/>
      <point x="256" y="13"/>
      <point x="189" y="13" type="curve" smooth="yes"/>
    </contour>
  </outline>
</glyph>
<glyph name="seven" format="1">
  <advance width="334"/>
  <unicode hex="0037"/>
  <outline>
    <contour>
      <point x="132" y="0" type="line"/>
      <point x="310" y="679" type="line"/>
      <point x="310" y="700" type="line"/>
      <point x="24" y="700" type="line"/>
      <point x="24" y="642" type="line"/>
      <point x="45" y="642" type="line"/>
      <point x="45" y="679" type="line"/>
      <point x="286" y="679" type="line"/>
      <point x="107" y="0" type="line"/>
    </contour>
  </outline>
</glyph>
<glyph name="eight" format="1">
  <advance width="367"/>
  <unicode hex="0038"/>
  <outline>
    <contour>
      <point x="266" y="-18"/>
      <point x="319" y="54"/>
      <point x="319" y="161" type="curve" smooth="yes"/>
      <point x="319" y="215" type="line" smooth="yes"/>
      <point x="319" y="322"/>
      <point x="263" y="394"/>
      <point x="184" y="394" type="curve" smooth="yes"/>
      <point x="105" y="394"/>
      <point x="48" y="322"/>
      <point x="48" y="215" type="curve" smooth="yes"/>
      <point x="48" y="161" type="line" smooth="yes"/>
      <point x="48" y="54"/>
      <point x="103" y="-18"/>
      <point x="184" y="-18" type="curve" smooth="yes"/>
    </contour>
    <contour>
      <point x="116" y="2"/>
      <point x="70" y="66"/>
      <point x="70" y="161" type="curve" smooth="yes"/>
      <point x="70" y="215" type="line" smooth="yes"/>
      <point x="70" y="311"/>
      <point x="116" y="375"/>
      <point x="184" y="375" type="curve" smooth="yes"/>
      <point x="252" y="375"/>
      <point x="297" y="311"/>
      <point x="297" y="215" type="curve" smooth="yes"/>
      <point x="297" y="161" type="line" smooth="yes"/>
      <point x="297" y="66"/>
      <point x="252" y="2"/>
      <point x="184" y="2" type="curve" smooth="yes"/>
    </contour>
    <contour>
      <point x="265" y="375"/>
      <point x="318" y="439"/>
      <point x="318" y="534" type="curve" smooth="yes"/>
      <point x="318" y="549" type="line" smooth="yes"/>
      <point x="318" y="644"/>
      <point x="266" y="708"/>
      <point x="184" y="708" type="curve" smooth="yes"/>
      <point x="103" y="708"/>
      <point x="49" y="644"/>
      <point x="49" y="549" type="curve" smooth="yes"/>
      <point x="49" y="534" type="line" smooth="yes"/>
      <point x="49" y="439"/>
      <point x="104" y="375"/>
      <point x="184" y="375" type="curve" smooth="yes"/>
    </contour>
    <contour>
      <point x="116" y="395"/>
      <point x="72" y="451"/>
      <point x="72" y="534" type="curve" smooth="yes"/>
      <point x="72" y="549" type="line" smooth="yes"/>
      <point x="72" y="633"/>
      <point x="116" y="689"/>
      <point x="184" y="689" type="curve" smooth="yes"/>
      <point x="252" y="689"/>
      <point x="295" y="633"/>
      <point x="295" y="549" type="curve" smooth="yes"/>
      <point x="295" y="534" type="line" smooth="yes"/>
      <point x="295" y="451"/>
      <point x="252" y="395"/>
      <point x="184" y="395" type="curve" smooth="yes"/>
    </contour>
  </outline>
</glyph>
<glyph name="colon" format="1">
  <advance width="246"/>
  <unicode hex="003A"/>
  <outline>
    <contour>
      <point x="141" y="350"/>
      <point x="157" y="368"/>
      <point x="157" y="391" type="curve" smooth="yes"/>
      <point x="157" y="413"/>
      <point x="141" y="431"/>
      <point x="123" y="431" type="curve" smooth="yes"/>
      <point x="105" y="431"/>
      <point x="89" y="413"/>
      <point x="89" y="391" type="curve" smooth="yes"/>
      <point x="89" y="368"/>
      <point x="104" y="350"/>
      <point x="123" y="350" type="curve" smooth="yes"/>
    </contour>
    <contour>
      <point x="141" y="7"/>
      <point x="157" y="25"/>
      <point x="157" y="48" type="curve" smooth="yes"/>
      <point x="157" y="70"/>
      <point x="141" y="88"/>
      <point x="123" y="88" type="curve" smooth="yes"/>
      <point x="105" y="88"/>
      <point x="89" y="70"/>
      <point x="89" y="48" type="curve" smooth="yes"/>
      <point x="89" y="25"/>
      <point x="104" y="7"/>
      <point x="123" y="7" type="curve" smooth="yes"/>
    </contour>
  </outline>
</glyph>
<glyph name="semicolon" format="1">
  <advance width="235"/>
  <unicode hex="003B"/>
  <outline>
    <contour>
      <point x="106" y="-60" type="line"/>
      <point x="134" y="147" type="line"/>
      <point x="111" y="147" type="line"/>
      <point x="86" y="-60" type="line"/>
    </contour>
    <contour>
      <point x="138" y="370"/>
      <point x="154" y="388"/>
      <point x="154" y="411" type="curve"/>
      <point x="154" y="433"/>
      <point x="138" y="451"/>
      <point x="120" y="451" type="curve" smooth="yes"/>
      <point x="102" y="451"/>
      <point x="86" y="433"/>
      <point x="86" y="411" type="curve" smooth="yes"/>
      <point x="86" y="388"/>
      <point x="101" y="370"/>
      <point x="120" y="370" type="curve" smooth="yes"/>
    </contour>
  </outline>
</glyph>
<glyph name="at" format="1">
  <advance width="882"/>
  <unicode hex="0040"/>
  <outline>
    <contour>
      <point x="506" y="-71"/>
      <point x="633" y="92"/>
      <point x="633" y="290" type="curve" smooth="yes"/>
      <point x="633" y="488"/>
      <point x="506" y="651"/>
      <point x="348" y="651" type="curve" smooth="yes"/>
      <point x="190" y="651"/>
      <point x="63" y="488"/>
      <point x="63" y="290" type="curve" smooth="yes"/>
      <point x="63" y="92"/>
      <point x="190" y="-71"/>
      <point x="348" y="-71" type="curve" smooth="yes"/>
    </contour>
    <contour>
      <point x="201" y="-50"/>
      <point x="83" y="102"/>
      <point x="83" y="290" type="curve" smooth="yes"/>
      <point x="83" y="478"/>
      <point x="201" y="630"/>
      <point x="348" y="630" type="curve" smooth="yes"/>
      <point x="495" y="630"/>
      <point x="613" y="478"/>
      <point x="613" y="290" type="curve" smooth="yes"/>
      <point x="613" y="102"/>
      <point x="495" y="-50"/>
      <point x="348" y="-50" type="curve" smooth="yes"/>
    </contour>
    <component base="a" xOffset="246" yOffset="138" xScale="0.59" yScale="0.59"/>
  </outline>
</glyph>
<glyph name="A" format="1">
  <advance width="375"/>
  <unicode hex="0041"/>
  <outline>
    <contour>
      <point x="40" y="0" type="line"/>
      <point x="188" y="658" type="line"/>
      <point x="335" y="0" type="line"/>
      <point x="357" y="0" type="line"/>
      <point x="198" y="700" type="line"/>
      <point x="175" y="700" type="line"/>
      <point x="18" y="0" type="line"/>
    </contour>
    <contour>
      <point x="312" y="155" type="line"/>
      <point x="312" y="176" type="line"/>
      <point x="66" y="176" type="line"/>
      <point x="66" y="155" type="line"/>
    </contour>
  </outline>
</glyph>
<glyph name="B" format="1">
  <advance width="379"/>
  <unicode hex="0042"/>
  <outline>
    <contour>
      <point x="70" y="679" type="line"/>
      <point x="194" y="679" type="line" smooth="yes"/>
      <point x="273" y="679"/>
      <point x="326" y="617"/>
      <point x="326" y="523" type="curve" smooth="yes"/>
      <point x="326" y="433"/>
      <point x="273" y="373"/>
      <point x="194" y="373" type="curve" smooth="yes"/>
      <point x="70" y="373" type="line"/>
    </contour>
    <contour>
      <point x="193" y="352" type="line" smooth="yes"/>
      <point x="286" y="352"/>
      <point x="348" y="421"/>
      <point x="348" y="523" type="curve" smooth="yes"/>
      <point x="348" y="629"/>
      <point x="286" y="700"/>
      <point x="194" y="700" type="curve" smooth="yes"/>
      <point x="48" y="700" type="line"/>
      <point x="48" y="352" type="line"/>
    </contour>
    <contour>
      <point x="70" y="352" type="line"/>
      <point x="194" y="352" type="line" smooth="yes"/>
      <point x="273" y="352"/>
      <point x="327" y="285"/>
      <point x="327" y="186" type="curve" smooth="yes"/>
      <point x="327" y="88"/>
      <point x="273" y="22"/>
      <point x="194" y="22" type="curve" smooth="yes"/>
      <point x="70" y="22" type="line"/>
    </contour>
    <contour>
      <point x="195" y="0" type="line" smooth="yes"/>
      <point x="286" y="0"/>
      <point x="349" y="74"/>
      <point x="349" y="186" type="curve" smooth="yes"/>
      <point x="349" y="299"/>
      <point x="286" y="373"/>
      <point x="193" y="373" type="curve" smooth="yes"/>
      <point x="48" y="373" type="line"/>
      <point x="48" y="0" type="line"/>
    </contour>
  </outline>
</glyph>
<glyph name="C" format="1">
  <advance width="391"/>
  <unicode hex="0043"/>
  <outline>
    <contour>
      <point x="296" y="-9"/>
      <point x="356" y="54"/>
      <point x="356" y="148" type="curve" smooth="yes"/>
      <point x="356" y="177" type="line"/>
      <point x="333" y="178" type="line"/>
      <point x="333" y="146" type="line" smooth="yes"/>
      <point x="333" y="66"/>
      <point x="282" y="12"/>
      <point x="205" y="12" type="curve" smooth="yes"/>
      <point x="129" y="12"/>
      <point x="78" y="66"/>
      <point x="78" y="146" type="curve" smooth="yes"/>
      <point x="78" y="555" type="line" smooth="yes"/>
      <point x="78" y="635"/>
      <point x="129" y="688"/>
      <point x="205" y="688" type="curve" smooth="yes"/>
      <point x="282" y="688"/>
      <point x="333" y="635"/>
      <point x="333" y="555" type="curve" smooth="yes"/>
      <point x="333" y="521" type="line"/>
      <point x="356" y="522" type="line"/>
      <point x="356" y="553" type="line" smooth="yes"/>
      <point x="356" y="647"/>
      <point x="296" y="709"/>
      <point x="205" y="709" type="curve" smooth="yes"/>
      <point x="116" y="709"/>
      <point x="56" y="647"/>
      <point x="56" y="553" type="curve" smooth="yes"/>
      <point x="56" y="148" type="line" smooth="yes"/>
      <point x="56" y="54"/>
      <point x="116" y="-9"/>
      <point x="205" y="-9" type="curve" smooth="yes"/>
    </contour>
  </outline>
</glyph>
<glyph name="D" format="1">
  <advance width="386"/>
  <unicode hex="0044"/>
  <outline>
    <contour>
      <point x="198" y="0" type="line" smooth="yes"/>
      <point x="288" y="0"/>
      <point x="344" y="68"/>
      <point x="344" y="180" type="curve" smooth="yes"/>
      <point x="344" y="520" type="line" smooth="yes"/>
      <point x="344" y="632"/>
      <point x="288" y="700"/>
      <point x="198" y="700" type="curve" smooth="yes"/>
      <point x="54" y="700" type="line"/>
      <point x="54" y="0" type="line"/>
    </contour>
    <contour>
      <point x="76" y="679" type="line"/>
      <point x="199" y="679" type="line" smooth="yes"/>
      <point x="275" y="679"/>
      <point x="321" y="619"/>
      <point x="321" y="520" type="curve" smooth="yes"/>
      <point x="321" y="179" type="line" smooth="yes"/>
      <point x="321" y="81"/>
      <point x="274" y="21"/>
      <point x="199" y="21" type="curve" smooth="yes"/>
      <point x="76" y="21" type="line"/>
    </contour>
  </outline>
</glyph>
<glyph name="E" format="1">
  <advance width="359"/>
  <unicode hex="0045"/>
  <outline>
    <contour>
      <point x="335" y="0" type="line"/>
      <point x="335" y="21" type="line"/>
      <point x="76" y="21" type="line"/>
      <point x="76" y="679" type="line"/>
      <point x="335" y="679" type="line"/>
      <point x="335" y="700" type="line"/>
      <point x="54" y="700" type="line"/>
      <point x="54" y="0" type="line"/>
    </contour>
    <contour>
      <point x="253" y="340" type="line"/>
      <point x="253" y="361" type="line"/>
      <point x="65" y="361" type="line"/>
      <point x="65" y="340" type="line"/>
    </contour>
  </outline>
</glyph>
<glyph name="F" format="1">
  <advance width="352"/>
  <unicode hex="0046"/>
  <outline>
    <contour>
      <point x="76" y="0" type="line"/>
      <point x="76" y="679" type="line"/>
      <point x="334" y="679" type="line"/>
      <point x="334" y="700" type="line"/>
      <point x="54" y="700" type="line"/>
      <point x="54" y="0" type="line"/>
    </contour>
    <contour>
      <point x="252" y="340" type="line"/>
      <point x="252" y="361" type="line"/>
      <point x="65" y="361" type="line"/>
      <point x="65" y="340" type="line"/>
    </contour>
  </outline>
</glyph>
<glyph name="G" format="1">
  <advance width="403"/>
  <unicode hex="0047"/>
  <outline>
    <contour>
      <point x="303" y="-9"/>
      <point x="363" y="52"/>
      <point x="363" y="144" type="curve" smooth="yes"/>
      <point x="363" y="356" type="line"/>
      <point x="220" y="356" type="line"/>
      <point x="220" y="335" type="line"/>
      <point x="341" y="335" type="line"/>
      <point x="341" y="142" type="line" smooth="yes"/>
      <point x="341" y="64"/>
      <point x="290" y="12"/>
      <point x="213" y="12" type="curve" smooth="yes"/>
      <point x="137" y="12"/>
      <point x="86" y="64"/>
      <point x="86" y="142" type="curve" smooth="yes"/>
      <point x="86" y="558" type="line" smooth="yes"/>
      <point x="86" y="636"/>
      <point x="137" y="688"/>
      <point x="213" y="688" type="curve" smooth="yes"/>
      <point x="290" y="688"/>
      <point x="341" y="636"/>
      <point x="341" y="558" type="curve" smooth="yes"/>
      <point x="341" y="500" type="line"/>
      <point x="363" y="500" type="line"/>
      <point x="363" y="556" type="line" smooth="yes"/>
      <point x="363" y="648"/>
      <point x="303" y="709"/>
      <point x="213" y="709" type="curve" smooth="yes"/>
      <point x="124" y="709"/>
      <point x="64" y="648"/>
      <point x="64" y="556" type="curve" smooth="yes"/>
      <point x="64" y="144" type="line" smooth="yes"/>
      <point x="64" y="52"/>
      <point x="124" y="-9"/>
      <point x="213" y="-9" type="curve" smooth="yes"/>
    </contour>
  </outline>
</glyph>
<glyph name="H" format="1">
  <advance width="391"/>
  <unicode hex="0048"/>
  <outline>
    <contour>
      <point x="337" y="0" type="line"/>
      <point x="337" y="700" type="line"/>
      <point x="315" y="700" type="line"/>
      <point x="315" y="0" type="line"/>
    </contour>
    <contour>
      <point x="76" y="0" type="line"/>
      <point x="76" y="700" type="line"/>
      <point x="54" y="700" type="line"/>
      <point x="54" y="0" type="line"/>
    </contour>
    <contour>
      <point x="322" y="340" type="line"/>
      <point x="322" y="361" type="line"/>
      <point x="70" y="361" type="line"/>
      <point x="70" y="340" type="line"/>
    </contour>
  </outline>
</glyph>
<glyph name="I" format="1">
  <advance width="166"/>
  <unicode hex="0049"/>
  <outline>
    <contour>
      <point x="94" y="0" type="line"/>
      <point x="94" y="700" type="line"/>
      <point x="72" y="700" type="line"/>
      <point x="72" y="0" type="line"/>
    </contour>
    <contour>
      <point x="83" y="710" type="move" name="top"/>
    </contour>
  </outline>
</glyph>
<glyph name="J" format="1">
  <advance width="384"/>
  <unicode hex="004A"/>
  <outline>
    <contour>
      <point x="254" y="-9"/>
      <point x="312" y="54"/>
      <point x="312" y="148" type="curve" smooth="yes"/>
      <point x="312" y="700" type="line"/>
      <point x="290" y="700" type="line"/>
      <point x="290" y="146" type="line" smooth="yes"/>
      <point x="290" y="66"/>
      <point x="241" y="12"/>
      <point x="168" y="12" type="curve" smooth="yes"/>
      <point x="95" y="12"/>
      <point x="46" y="66"/>
      <point x="46" y="146" type="curve" smooth="yes"/>
      <point x="46" y="251" type="line"/>
      <point x="24" y="251" type="line"/>
      <point x="24" y="148" type="line" smooth="yes"/>
      <point x="24" y="54"/>
      <point x="82" y="-9"/>
      <point x="168" y="-9" type="curve" smooth="yes"/>
    </contour>
  </outline>
</glyph>
<glyph name="K" format="1">
  <advance width="386"/>
  <unicode hex="004B"/>
  <outline>
    <contour>
      <point x="85" y="0" type="line"/>
      <point x="85" y="274" type="line"/>
      <point x="173" y="406" type="line"/>
      <point x="359" y="0" type="line"/>
      <point x="386" y="0" type="line"/>
      <point x="189" y="427" type="line"/>
      <point x="369" y="700" type="line"/>
      <point x="341" y="700" type="line"/>
      <point x="85" y="308" type="line"/>
      <point x="85" y="700" type="line"/>
      <point x="63" y="700" type="line"/>
      <point x="63" y="0" type="line"/>
    </contour>
  </outline>
</glyph>
<glyph name="L" format="1">
  <advance width="343"/>
  <unicode hex="004C"/>
  <outline>
    <contour>
      <point x="331" y="0" type="line"/>
      <point x="331" y="21" type="line"/>
      <point x="76" y="21" type="line"/>
      <point x="76" y="700" type="line"/>
      <point x="54" y="700" type="line"/>
      <point x="54" y="0" type="line"/>
    </contour>
  </outline>
</glyph>
<glyph name="M" format="1">
  <advance width="416"/>
  <unicode hex="004D"/>
  <outline>
    <contour>
      <point x="70" y="0" type="line"/>
      <point x="70" y="651" type="line"/>
      <point x="200" y="330" type="line"/>
      <point x="218" y="330" type="line"/>
      <point x="346" y="651" type="line"/>
      <point x="346" y="0" type="line"/>
      <point x="368" y="0" type="line"/>
      <point x="368" y="700" type="line"/>
      <point x="346" y="700" type="line"/>
      <point x="207" y="358" type="line"/>
      <point x="70" y="700" type="line"/>
      <point x="48" y="700" type="line"/>
      <point x="48" y="0" type="line"/>
    </contour>
  </outline>
</glyph>
<glyph name="N" format="1">
  <advance width="393"/>
  <unicode hex="004E"/>
  <outline>
    <contour>
      <point x="70" y="0" type="line"/>
      <point x="70" y="648" type="line"/>
      <point x="322" y="0" type="line"/>
      <point x="345" y="0" type="line"/>
      <point x="345" y="700" type="line"/>
      <point x="323" y="700" type="line"/>
      <point x="323" y="52" type="line"/>
      <point x="70" y="700" type="line"/>
      <point x="48" y="700" type="line"/>
      <point x="48" y="0" type="line"/>
    </contour>
  </outline>
</glyph>
<glyph name="O" format="1">
  <advance width="376"/>
  <unicode hex="004F"/>
  <outline>
    <contour>
      <point x="277" y="-9"/>
      <point x="340" y="56"/>
      <point x="340" y="150" type="curve" smooth="yes"/>
      <point x="340" y="549" type="line" smooth="yes"/>
      <point x="340" y="643"/>
      <point x="277" y="709"/>
      <point x="187" y="709" type="curve" smooth="yes"/>
      <point x="98" y="709"/>
      <point x="36" y="643"/>
      <point x="36" y="549" type="curve" smooth="yes"/>
      <point x="36" y="150" type="line" smooth="yes"/>
      <point x="36" y="56"/>
      <point x="98" y="-9"/>
      <point x="187" y="-9" type="curve" smooth="yes"/>
    </contour>
    <contour>
      <point x="111" y="12"/>
      <point x="58" y="68"/>
      <point x="58" y="148" type="curve" smooth="yes"/>
      <point x="58" y="551" type="line" smooth="yes"/>
      <point x="58" y="632"/>
      <point x="111" y="688"/>
      <point x="187" y="688" type="curve" smooth="yes"/>
      <point x="264" y="688"/>
      <point x="318" y="632"/>
      <point x="318" y="551" type="curve" smooth="yes"/>
      <point x="318" y="148" type="line" smooth="yes"/>
      <point x="318" y="68"/>
      <point x="264" y="12"/>
      <point x="187" y="12" type="curve" smooth="yes"/>
    </contour>
  </outline>
</glyph>
<glyph name="P" format="1">
  <advance width="377"/>
  <unicode hex="0050"/>
  <outline>
    <contour>
      <point x="70" y="0" type="line"/>
      <point x="70" y="681" type="line"/>
      <point x="206" y="681" type="line" smooth="yes"/>
      <point x="273" y="681"/>
      <point x="319" y="617"/>
      <point x="319" y="520" type="curve" smooth="yes"/>
      <point x="319" y="425"/>
      <point x="273" y="361"/>
      <point x="206" y="361" type="curve" smooth="yes"/>
      <point x="66" y="361" type="line"/>
      <point x="66" y="340" type="line"/>
      <point x="206" y="340" type="line" smooth="yes"/>
      <point x="287" y="340"/>
      <point x="341" y="411"/>
      <point x="341" y="520" type="curve" smooth="yes"/>
      <point x="341" y="629"/>
      <point x="287" y="702"/>
      <point x="206" y="702" type="curve" smooth="yes"/>
      <point x="48" y="702" type="line"/>
      <point x="48" y="0" type="line"/>
    </contour>
  </outline>
</glyph>
<glyph name="Q" format="1">
  <advance width="400"/>
  <unicode hex="0051"/>
  <outline>
    <contour>
      <point x="205" y="-127" type="line"/>
      <point x="205" y="0" type="line"/>
      <point x="182" y="0" type="line"/>
      <point x="182" y="-127" type="line"/>
    </contour>
    <contour>
      <point x="121" y="13"/>
      <point x="70" y="69"/>
      <point x="70" y="150" type="curve" smooth="yes"/>
      <point x="70" y="550" type="line" smooth="yes"/>
      <point x="70" y="631"/>
      <point x="121" y="687"/>
      <point x="194" y="687" type="curve" smooth="yes"/>
      <point x="267" y="687"/>
      <point x="317" y="631"/>
      <point x="317" y="550" type="curve" smooth="yes"/>
      <point x="317" y="150" type="line" smooth="yes"/>
      <point x="317" y="69"/>
      <point x="267" y="13"/>
      <point x="194" y="13" type="curve" smooth="yes"/>
    </contour>
    <contour>
      <point x="280" y="-8"/>
      <point x="339" y="57"/>
      <point x="339" y="151" type="curve" smooth="yes"/>
      <point x="339" y="549" type="line" smooth="yes"/>
      <point x="339" y="643"/>
      <point x="280" y="708"/>
      <point x="194" y="708" type="curve" smooth="yes"/>
      <point x="108" y="708"/>
      <point x="48" y="643"/>
      <point x="48" y="549" type="curve" smooth="yes"/>
      <point x="48" y="151" type="line" smooth="yes"/>
      <point x="48" y="57"/>
      <point x="108" y="-8"/>
      <point x="194" y="-8" type="curve" smooth="yes"/>
    </contour>
  </outline>
</glyph>
<glyph name="R" format="1">
  <advance width="387"/>
  <unicode hex="0052"/>
  <outline>
    <contour>
      <point x="70" y="0" type="line"/>
      <point x="70" y="681" type="line"/>
      <point x="206" y="681" type="line" smooth="yes"/>
      <point x="273" y="681"/>
      <point x="319" y="617"/>
      <point x="319" y="522" type="curve" smooth="yes"/>
      <point x="319" y="429"/>
      <point x="273" y="365"/>
      <point x="206" y="365" type="curve" smooth="yes"/>
      <point x="66" y="365" type="line"/>
      <point x="66" y="344" type="line"/>
      <point x="206" y="344" type="line" smooth="yes"/>
      <point x="287" y="344"/>
      <point x="341" y="415"/>
      <point x="341" y="522" type="curve" smooth="yes"/>
      <point x="341" y="629"/>
      <point x="287" y="702"/>
      <point x="206" y="702" type="curve" smooth="yes"/>
      <point x="48" y="702" type="line"/>
      <point x="48" y="0" type="line"/>
    </contour>
    <contour>
      <point x="351" y="0" type="line"/>
      <point x="246" y="353" type="line"/>
      <point x="227" y="345" type="line"/>
      <point x="329" y="0" type="line"/>
    </contour>
  </outline>
</glyph>
<glyph name="S" format="1">
  <advance width="375"/>
  <unicode hex="0053"/>
  <outline>
    <contour>
      <point x="273" y="-8"/>
      <point x="335" y="60"/>
      <point x="335" y="165" type="curve" smooth="yes"/>
      <point x="335" y="256"/>
      <point x="288" y="295"/>
      <point x="190" y="368" type="curve" smooth="yes"/>
      <point x="105" y="431"/>
      <point x="62" y="465"/>
      <point x="62" y="547" type="curve" smooth="yes"/>
      <point x="62" y="638"/>
      <point x="114" y="688"/>
      <point x="181" y="688" type="curve" smooth="yes"/>
      <point x="256" y="688"/>
      <point x="307" y="627"/>
      <point x="307" y="534" type="curve" smooth="yes"/>
      <point x="307" y="500" type="line"/>
      <point x="329" y="500" type="line"/>
      <point x="329" y="535" type="line" smooth="yes"/>
      <point x="329" y="639"/>
      <point x="270" y="708"/>
      <point x="181" y="708" type="curve" smooth="yes"/>
      <point x="101" y="708"/>
      <point x="40" y="652"/>
      <point x="40" y="551" type="curve" smooth="yes"/>
      <point x="40" y="455"/>
      <point x="96" y="410"/>
      <point x="178" y="348" type="curve" smooth="yes"/>
      <point x="256" y="289"/>
      <point x="313" y="254"/>
      <point x="313" y="162" type="curve" smooth="yes"/>
      <point x="313" y="72"/>
      <point x="258" y="12"/>
      <point x="186" y="12" type="curve" smooth="yes"/>
      <point x="113" y="12"/>
      <point x="61" y="72"/>
      <point x="61" y="165" type="curve" smooth="yes"/>
      <point x="61" y="192" type="line"/>
      <point x="40" y="192" type="line"/>
      <point x="40" y="164" type="line" smooth="yes"/>
      <point x="40" y="60"/>
      <point x="101" y="-8"/>
      <point x="187" y="-8" type="curve" smooth="yes"/>
    </contour>
    <contour>
      <point x="181" y="708" type="move" name="top"/>
    </contour>
  </outline>
</glyph>
<glyph name="T" format="1">
  <advance width="347"/>
  <unicode hex="0054"/>
  <outline>
    <contour>
      <point x="186" y="0" type="line"/>
      <point x="186" y="689" type="line"/>
      <point x="164" y="689" type="line"/>
      <point x="164" y="0" type="line"/>
    </contour>
    <contour>
      <point x="335" y="679" type="line"/>
      <point x="335" y="700" type="line"/>
      <point x="24" y="700" type="line"/>
      <point x="24" y="679" type="line"/>
    </contour>
  </outline>
</glyph>
<glyph name="U" format="1">
  <advance width="418"/>
  <unicode hex="0055"/>
  <outline>
    <contour>
      <point x="300" y="-9"/>
      <point x="362" y="65"/>
      <point x="362" y="175" type="curve" smooth="yes"/>
      <point x="362" y="700" type="line"/>
      <point x="340" y="700" type="line"/>
      <point x="340" y="171" type="line" smooth="yes"/>
      <point x="340" y="76"/>
      <point x="287" y="12"/>
      <point x="208" y="12" type="curve" smooth="yes"/>
      <point x="130" y="12"/>
      <point x="78" y="76"/>
      <point x="78" y="171" type="curve" smooth="yes"/>
      <point x="78" y="700" type="line"/>
      <point x="56" y="700" type="line"/>
      <point x="56" y="175" type="line" smooth="yes"/>
      <point x="56" y="65"/>
      <point x="117" y="-9"/>
      <point x="208" y="-9" type="curve" smooth="yes"/>
    </contour>
  </outline>
</glyph>
<glyph name="V" format="1">
  <advance width="376"/>
  <unicode hex="0056"/>
  <outline>
    <contour>
      <point x="199" y="0" type="line"/>
      <point x="358" y="700" type="line"/>
      <point x="336" y="700" type="line"/>
      <point x="188" y="42" type="line"/>
      <point x="41" y="700" type="line"/>
      <point x="18" y="700" type="line"/>
      <point x="177" y="0" type="line"/>
    </contour>
  </outline>
</glyph>
<glyph name="W" format="1">
  <advance width="555"/>
  <unicode hex="0057"/>
  <outline>
    <contour>
      <point x="162" y="0" type="line"/>
      <point x="278" y="656" type="line"/>
      <point x="391" y="0" type="line"/>
      <point x="413" y="0" type="line"/>
      <point x="537" y="700" type="line"/>
      <point x="514" y="700" type="line"/>
      <point x="403" y="40" type="line"/>
      <point x="288" y="700" type="line"/>
      <point x="266" y="700" type="line"/>
      <point x="152" y="40" type="line"/>
      <point x="41" y="700" type="line"/>
      <point x="18" y="700" type="line"/>
      <point x="141" y="0" type="line"/>
    </contour>
  </outline>
</glyph>
<glyph name="X" format="1">
  <advance width="369"/>
  <unicode hex="0058"/>
  <outline>
    <contour>
      <point x="49" y="0" type="line"/>
      <point x="185" y="330" type="line"/>
      <point x="320" y="0" type="line"/>
      <point x="345" y="0" type="line"/>
      <point x="195" y="349" type="line"/>
      <point x="345" y="700" type="line"/>
      <point x="320" y="700" type="line"/>
      <point x="185" y="369" type="line"/>
      <point x="49" y="700" type="line"/>
      <point x="24" y="700" type="line"/>
      <point x="173" y="350" type="line"/>
      <point x="24" y="0" type="line"/>
    </contour>
  </outline>
</glyph>
<glyph name="Y" format="1">
  <advance width="357"/>
  <unicode hex="0059"/>
  <outline>
    <contour>
      <point x="190" y="0" type="line"/>
      <point x="190" y="339" type="line"/>
      <point x="336" y="700" type="line"/>
      <point x="313" y="700" type="line"/>
      <point x="179" y="358" type="line"/>
      <point x="44" y="700" type="line"/>
      <point x="21" y="700" type="line"/>
      <point x="168" y="339" type="line"/>
      <point x="168" y="0" type="line"/>
    </contour>
  </outline>
</glyph>
<glyph name="Z" format="1">
  <advance width="348"/>
  <unicode hex="005A"/>
  <outline>
    <contour>
      <point x="316" y="0" type="line"/>
      <point x="316" y="21" type="line"/>
      <point x="49" y="21" type="line"/>
      <point x="316" y="679" type="line"/>
      <point x="316" y="700" type="line"/>
      <point x="24" y="700" type="line"/>
      <point x="24" y="679" type="line"/>
      <point x="292" y="679" type="line"/>
      <point x="24" y="21" type="line"/>
      <point x="24" y="0" type="line"/>
    </contour>
  </outline>
</glyph>
<glyph name="a" format="1">
  <advance width="373"/>
  <unicode hex="0061"/>
  <outline>
    <contour>
      <point x="317" y="0" type="line"/>
      <point x="317" y="342" type="line" smooth="yes"/>
      <point x="317" y="442"/>
      <point x="264" y="508"/>
      <point x="184" y="508" type="curve" smooth="yes"/>
      <point x="105" y="508"/>
      <point x="53" y="458"/>
      <point x="53" y="382" type="curve" smooth="yes"/>
      <point x="53" y="381" type="line"/>
      <point x="76" y="381" type="line"/>
      <point x="76" y="385" type="line" smooth="yes"/>
      <point x="76" y="446"/>
      <point x="119" y="487"/>
      <point x="183" y="487" type="curve" smooth="yes"/>
      <point x="250" y="487"/>
      <point x="294" y="430"/>
      <point x="294" y="345" type="curve" smooth="yes"/>
      <point x="294" y="0" type="line"/>
    </contour>
    <contour>
      <point x="240" y="-8"/>
      <point x="309" y="37"/>
      <point x="309" y="142" type="curve"/>
      <point x="309" y="290" type="line"/>
      <point x="197" y="283" type="line" smooth="yes"/>
      <point x="108" y="277"/>
      <point x="43" y="236"/>
      <point x="43" y="126" type="curve" smooth="yes"/>
      <point x="43" y="18"/>
      <point x="107" y="-8"/>
      <point x="164" y="-8" type="curve" smooth="yes"/>
    </contour>
    <contour>
      <point x="110" y="13"/>
      <point x="65" y="45"/>
      <point x="65" y="127" type="curve" smooth="yes"/>
      <point x="65" y="219"/>
      <point x="121" y="256"/>
      <point x="199" y="262" type="curve" smooth="yes"/>
      <point x="294" y="269" type="line"/>
      <point x="294" y="142" type="line" smooth="yes"/>
      <point x="294" y="52"/>
      <point x="230" y="13"/>
      <point x="167" y="13" type="curve" smooth="yes"/>
    </contour>
    <contour>
      <point x="193" y="508" type="move" name="top"/>
    </contour>
  </outline>
</glyph>
<glyph name="b" format="1">
  <advance width="379"/>
  <unicode hex="0062"/>
  <outline>
    <contour>
      <point x="86" y="0" type="line"/>
      <point x="86" y="700" type="line"/>
      <point x="64" y="700" type="line"/>
      <point x="64" y="0" type="line"/>
    </contour>
    <component base="b.bowl" xOffset="71"/>
  </outline>
</glyph>
<glyph name="c" format="1">
  <advance width="342"/>
  <unicode hex="0063"/>
  <outline>
    <contour>
      <point x="253" y="-8"/>
      <point x="306" y="50"/>
      <point x="306" y="136" type="curve" smooth="yes"/>
      <point x="306" y="137" type="line"/>
      <point x="284" y="138" type="line"/>
      <point x="284" y="135" type="line" smooth="yes"/>
      <point x="284" y="62"/>
      <point x="240" y="13"/>
      <point x="175" y="13" type="curve" smooth="yes"/>
      <point x="109" y="13"/>
      <point x="64" y="70"/>
      <point x="64" y="155" type="curve" smooth="yes"/>
      <point x="64" y="345" type="line" smooth="yes"/>
      <point x="64" y="430"/>
      <point x="109" y="487"/>
      <point x="175" y="487" type="curve" smooth="yes"/>
      <point x="240" y="487"/>
      <point x="284" y="438"/>
      <point x="284" y="365" type="curve" smooth="yes"/>
      <point x="284" y="362" type="line"/>
      <point x="306" y="363" type="line"/>
      <point x="306" y="364" type="line" smooth="yes"/>
      <point x="306" y="450"/>
      <point x="253" y="508"/>
      <point x="175" y="508" type="curve" smooth="yes"/>
      <point x="96" y="508"/>
      <point x="42" y="442"/>
      <point x="42" y="344" type="curve" smooth="yes"/>
      <point x="42" y="156" type="line" smooth="yes"/>
      <point x="42" y="58"/>
      <point x="96" y="-8"/>
      <point x="175" y="-8" type="curve" smooth="yes"/>
    </contour>
  </outline>
</glyph>
<glyph name="e" format="1">
  <advance width="344"/>
  <unicode hex="0065"/>
  <outline>
    <contour>
      <point x="241" y="-8"/>
      <point x="293" y="39"/>
      <point x="305" y="109" type="curve"/>
      <point x="282" y="108" type="line"/>
      <point x="270" y="51"/>
      <point x="227" y="13"/>
      <point x="175" y="13" type="curve" smooth="yes"/>
      <point x="108" y="13"/>
      <point x="64" y="62"/>
      <point x="64" y="135" type="curve" smooth="yes"/>
      <point x="64" y="365" type="line" smooth="yes"/>
      <point x="64" y="438"/>
      <point x="108" y="487"/>
      <point x="175" y="487" type="curve" smooth="yes"/>
      <point x="241" y="487"/>
      <point x="285" y="438"/>
      <point x="285" y="365" type="curve" smooth="yes"/>
      <point x="285" y="265" type="line"/>
      <point x="54" y="265" type="line"/>
      <point x="54" y="244" type="line"/>
      <point x="308" y="244" type="line"/>
      <point x="308" y="363" type="line" smooth="yes"/>
      <point x="308" y="450"/>
      <point x="255" y="508"/>
      <point x="175" y="508" type="curve" smooth="yes"/>
      <point x="95" y="508"/>
      <point x="42" y="450"/>
      <point x="42" y="364" type="curve" smooth="yes"/>
      <point x="42" y="136" type="line" smooth="yes"/>
      <point x="42" y="50"/>
      <point x="95" y="-8"/>
      <point x="175" y="-8" type="curve" smooth="yes"/>
    </contour>
  </outline>
</glyph>
<glyph name="f" format="1">
  <advance width="207"/>
  <unicode hex="0066"/>
  <outline>
    <contour>
      <point x="89" y="0" type="line"/>
      <point x="89" y="550" type="line" smooth="yes"/>
      <point x="89" y="637"/>
      <point x="102" y="689"/>
      <point x="172" y="689" type="curve" smooth="yes"/>
      <point x="197" y="689" type="line"/>
      <point x="197" y="710" type="line"/>
      <point x="171" y="710" type="line" smooth="yes"/>
      <point x="89" y="710"/>
      <point x="67" y="650"/>
      <point x="67" y="550" type="curve" smooth="yes"/>
      <point x="67" y="0" type="line"/>
    </contour>
    <contour>
      <point x="193" y="479" type="line"/>
      <point x="193" y="500" type="line"/>
      <point x="7" y="500" type="line"/>
      <point x="7" y="479" type="line"/>
    </contour>
  </outline>
</glyph>
<glyph name="g" format="1">
  <advance width="387"/>
  <unicode hex="0067"/>
  <outline>
    <contour>
      <point x="267" y="-204"/>
      <point x="323" y="-137"/>
      <point x="323" y="0" type="curve" smooth="yes"/>
      <point x="323" y="500" type="line"/>
      <point x="300" y="500" type="line"/>
      <point x="300" y="0" type="line" smooth="yes"/>
      <point x="300" y="-123"/>
      <point x="251" y="-183"/>
      <point x="181" y="-179" type="curve"/>
      <point x="181" y="-200" type="line"/>
    </contour>
    <component base="b.bowl" xOffset="316" xScale="-1"/>
  </outline>
</glyph>
<glyph name="h" format="1">
  <advance width="366"/>
  <unicode hex="0068"/>
  <outline>
    <contour>
      <point x="78" y="0" type="line"/>
      <point x="78" y="700" type="line"/>
      <point x="56" y="700" type="line"/>
      <point x="56" y="0" type="line"/>
    </contour>
    <component base="n.curve" xOffset="63"/>
  </outline>
</glyph>
<glyph name="i" format="1">
  <advance width="150"/>
  <unicode hex="0069"/>
  <outline>
    <contour>
      <point x="87" y="0" type="line"/>
      <point x="87" y="500" type="line"/>
      <point x="65" y="500" type="line"/>
      <point x="65" y="0" type="line"/>
    </contour>
    <contour>
      <point x="90" y="620"/>
      <point x="101" y="633"/>
      <point x="101" y="650" type="curve" smooth="yes"/>
      <point x="101" y="666"/>
      <point x="90" y="679"/>
      <point x="76" y="679" type="curve" smooth="yes"/>
      <point x="61" y="679"/>
      <point x="49" y="666"/>
      <point x="49" y="650" type="curve" smooth="yes"/>
      <point x="49" y="633"/>
      <point x="61" y="620"/>
      <point x="76" y="620" type="curve" smooth="yes"/>
    </contour>
  </outline>
</glyph>
<glyph name="j" format="1">
  <advance width="166"/>
  <unicode hex="006A"/>
  <outline>
    <contour>
      <point x="71" y="-211"/>
      <point x="110" y="-159"/>
      <point x="110" y="-74" type="curve" smooth="yes"/>
      <point x="110" y="500" type="line"/>
      <point x="88" y="500" type="line"/>
      <point x="88" y="-74" type="line" smooth="yes"/>
      <point x="88" y="-146"/>
      <point x="56" y="-190"/>
      <point x="0" y="-190" type="curve"/>
      <point x="0" y="-211" type="line"/>
    </contour>
    <contour>
      <point x="115" y="620"/>
      <point x="126" y="631"/>
      <point x="126" y="650" type="curve" smooth="yes"/>
      <point x="126" y="669"/>
      <point x="115" y="679"/>
      <point x="99" y="679" type="curve" smooth="yes"/>
      <point x="84" y="679"/>
      <point x="73" y="669"/>
      <point x="73" y="650" type="curve" smooth="yes"/>
      <point x="73" y="631"/>
      <point x="84" y="620"/>
      <point x="99" y="620" type="curve" smooth="yes"/>
    </contour>
  </outline>
</glyph>
<glyph name="k" format="1">
  <advance width="356"/>
  <unicode hex="006B"/>
  <outline>
    <contour>
      <point x="92" y="0" type="line"/>
      <point x="92" y="200" type="line"/>
      <point x="199" y="347" type="line"/>
      <point x="311" y="0" type="line"/>
      <point x="335" y="0" type="line"/>
      <point x="215" y="363" type="line"/>
      <point x="319" y="500" type="line"/>
      <point x="293" y="500" type="line"/>
      <point x="92" y="227" type="line"/>
      <point x="92" y="700" type="line"/>
      <point x="70" y="700" type="line"/>
      <point x="70" y="0" type="line"/>
    </contour>
  </outline>
</glyph>
<glyph name="l" format="1">
  <advance width="118"/>
  <unicode hex="006C"/>
  <outline>
    <contour>
      <point x="70" y="0" type="line"/>
      <point x="70" y="700" type="line"/>
      <point x="48" y="700" type="line"/>
      <point x="48" y="0" type="line"/>
    </contour>
  </outline>
</glyph>
<glyph name="m" format="1">
  <advance width="572"/>
  <unicode hex="006D"/>
  <outline>
    <contour>
      <point x="70" y="0" type="line"/>
      <point x="70" y="500" type="line"/>
      <point x="48" y="500" type="line"/>
      <point x="48" y="0" type="line"/>
    </contour>
    <contour>
      <point x="300" y="0" type="line"/>
      <point x="300" y="347" type="line" smooth="yes"/>
      <point x="300" y="446"/>
      <point x="252" y="507"/>
      <point x="181" y="507" type="curve" smooth="yes"/>
      <point x="107" y="507"/>
      <point x="56" y="448"/>
      <point x="56" y="346" type="curve"/>
      <point x="70" y="346" type="line"/>
      <point x="70" y="433"/>
      <point x="112" y="486"/>
      <point x="177" y="486" type="curve" smooth="yes"/>
      <point x="236" y="486"/>
      <point x="278" y="432"/>
      <point x="278" y="344" type="curve" smooth="yes"/>
      <point x="278" y="0" type="line"/>
    </contour>
    <contour>
      <point x="530" y="0" type="line"/>
      <point x="530" y="347" type="line" smooth="yes"/>
      <point x="530" y="446"/>
      <point x="481" y="507"/>
      <point x="411" y="507" type="curve" smooth="yes"/>
      <point x="337" y="507"/>
      <point x="286" y="448"/>
      <point x="286" y="346" type="curve"/>
      <point x="300" y="346" type="line"/>
      <point x="300" y="433"/>
      <point x="342" y="486"/>
      <point x="406" y="486" type="curve" smooth="yes"/>
      <point x="466" y="486"/>
      <point x="508" y="432"/>
      <point x="508" y="344" type="curve" smooth="yes"/>
      <point x="508" y="0" type="line"/>
    </contour>
  </outline>
</glyph>
<glyph name="n" format="1">
  <advance width="351"/>
  <unicode hex="006E"/>
  <outline>
    <contour>
      <point x="70" y="0" type="line"/>
      <point x="70" y="500" type="line"/>
      <point x="48" y="500" type="line"/>
      <point x="48" y="0" type="line"/>
    </contour>
    <component base="n.curve" xOffset="55"/>
  </outline>
</glyph>
<glyph name="o" format="1">
  <advance width="341"/>
  <unicode hex="006F"/>
  <outline>
    <contour>
      <point x="250" y="-8"/>
      <point x="305" y="51"/>
      <point x="305" y="136" type="curve" smooth="yes"/>
      <point x="305" y="364" type="line" smooth="yes"/>
      <point x="305" y="449"/>
      <point x="250" y="508"/>
      <point x="170" y="508" type="curve" smooth="yes"/>
      <point x="91" y="508"/>
      <point x="36" y="449"/>
      <point x="36" y="364" type="curve" smooth="yes"/>
      <point x="36" y="136" type="line" smooth="yes"/>
      <point x="36" y="51"/>
      <point x="91" y="-8"/>
      <point x="170" y="-8" type="curve" smooth="yes"/>
    </contour>
    <contour>
      <point x="104" y="13"/>
      <point x="58" y="63"/>
      <point x="58" y="135" type="curve" smooth="yes"/>
      <point x="58" y="365" type="line" smooth="yes"/>
      <point x="58" y="437"/>
      <point x="104" y="487"/>
      <point x="170" y="487" type="curve" smooth="yes"/>
      <point x="237" y="487"/>
      <point x="283" y="437"/>
      <point x="283" y="365" type="curve" smooth="yes"/>
      <point x="283" y="135" type="line" smooth="yes"/>
      <point x="283" y="63"/>
      <point x="237" y="13"/>
      <point x="170" y="13" type="curve" smooth="yes"/>
    </contour>
  </outline>
</glyph>
<glyph name="r" format="1">
  <advance width="227"/>
  <unicode hex="0072"/>
  <outline>
    <contour>
      <point x="70" y="331" type="line"/>
      <point x="70" y="419"/>
      <point x="113" y="479"/>
      <point x="174" y="479" type="curve" smooth="yes"/>
      <point x="195" y="479"/>
      <point x="206" y="474"/>
      <point x="217" y="466" type="curve"/>
      <point x="227" y="489" type="line"/>
      <point x="214" y="498"/>
      <point x="201" y="504"/>
      <point x="177" y="504" type="curve" smooth="yes"/>
      <point x="104" y="504"/>
      <point x="57" y="438"/>
      <point x="57" y="331" type="curve"/>
    </contour>
    <contour>
      <point x="70" y="0" type="line"/>
      <point x="70" y="500" type="line"/>
      <point x="48" y="500" type="line"/>
      <point x="48" y="0" type="line"/>
    </contour>
  </outline>
</glyph>
<glyph name="s" format="1">
  <advance width="304"/>
  <unicode hex="0073"/>
  <outline>
    <contour>
      <point x="230" y="-4"/>
      <point x="280" y="47"/>
      <point x="280" y="123" type="curve" smooth="yes"/>
      <point x="280" y="212"/>
      <point x="214" y="238"/>
      <point x="152" y="264" type="curve" smooth="yes"/>
      <point x="98" y="287"/>
      <point x="48" y="310"/>
      <point x="48" y="378" type="curve" smooth="yes"/>
      <point x="48" y="441"/>
      <point x="89" y="483"/>
      <point x="151" y="483" type="curve" smooth="yes"/>
      <point x="215" y="483"/>
      <point x="257" y="437"/>
      <point x="257" y="369" type="curve" smooth="yes"/>
      <point x="257" y="344" type="line"/>
      <point x="278" y="344" type="line"/>
      <point x="278" y="369" type="line" smooth="yes"/>
      <point x="278" y="450"/>
      <point x="229" y="504"/>
      <point x="152" y="504" type="curve" smooth="yes"/>
      <point x="77" y="504"/>
      <point x="26" y="454"/>
      <point x="26" y="378" type="curve" smooth="yes"/>
      <point x="26" y="294"/>
      <point x="85" y="268"/>
      <point x="146" y="243" type="curve" smooth="yes"/>
      <point x="204" y="219"/>
      <point x="258" y="196"/>
      <point x="258" y="123" type="curve" smooth="yes"/>
      <point x="258" y="59"/>
      <point x="217" y="17"/>
      <point x="154" y="17" type="curve" smooth="yes"/>
      <point x="87" y="17"/>
      <point x="46" y="61"/>
      <point x="46" y="126" type="curve" smooth="yes"/>
      <point x="46" y="157" type="line"/>
      <point x="24" y="157" type="line"/>
      <point x="24" y="126" type="line" smooth="yes"/>
      <point x="24" y="48"/>
      <point x="76" y="-4"/>
      <point x="154" y="-4" type="curve" smooth="yes"/>
    </contour>
  </outline>
</glyph>
<glyph name="t" format="1">
  <advance width="196"/>
  <unicode hex="0074"/>
  <outline>
    <contour>
      <point x="184" y="0" type="line"/>
      <point x="184" y="21" type="line"/>
      <point x="163" y="21" type="line" smooth="yes"/>
      <point x="110" y="21"/>
      <point x="83" y="43"/>
      <point x="83" y="123" type="curve" smooth="yes"/>
      <point x="83" y="626" type="line"/>
      <point x="60" y="626" type="line"/>
      <point x="60" y="124" type="line" smooth="yes"/>
      <point x="60" y="23"/>
      <point x="101" y="0"/>
      <point x="161" y="0" type="curve" smooth="yes"/>
    </contour>
    <contour>
      <point x="184" y="479" type="line"/>
      <point x="184" y="500" type="line"/>
      <point x="4" y="500" type="line"/>
      <point x="4" y="479" type="line"/>
    </contour>
  </outline>
</glyph>
<glyph name="u" format="1">
  <advance width="366"/>
  <unicode hex="0075"/>
  <outline>
    <contour>
      <point x="255" y="-7"/>
      <point x="305" y="49"/>
      <point x="305" y="154" type="curve"/>
      <point x="288" y="154" type="line"/>
      <point x="288" y="67"/>
      <point x="245" y="14"/>
      <point x="177" y="14" type="curve" smooth="yes"/>
      <point x="110" y="14"/>
      <point x="71" y="57"/>
      <point x="71" y="143" type="curve" smooth="yes"/>
      <point x="71" y="500" type="line"/>
      <point x="49" y="500" type="line"/>
      <point x="49" y="138" type="line" smooth="yes"/>
      <point x="49" y="41"/>
      <point x="98" y="-7"/>
      <point x="177" y="-7" type="curve" smooth="yes"/>
    </contour>
    <contour>
      <point x="310" y="0" type="line"/>
      <point x="310" y="500" type="line"/>
      <point x="288" y="500" type="line"/>
      <point x="288" y="0" type="line"/>
    </contour>
    <contour>
      <point x="179" y="500" type="move" name="top"/>
    </contour>
  </outline>
</glyph>
<glyph name="v" format="1">
  <advance width="339"/>
  <unicode hex="0076"/>
  <outline>
    <contour>
      <point x="178" y="0" type="line"/>
      <point x="307" y="500" type="line"/>
      <point x="282" y="500" type="line"/>
      <point x="166" y="33" type="line"/>
      <point x="49" y="500" type="line"/>
      <point x="24" y="500" type="line"/>
      <point x="155" y="0" type="line"/>
    </contour>
  </outline>
</glyph>
<glyph name="w" format="1">
  <advance width="505"/>
  <unicode hex="0077"/>
  <outline>
    <contour>
      <point x="155" y="0" type="line"/>
      <point x="251" y="461" type="line"/>
      <point x="349" y="0" type="line"/>
      <point x="371" y="0" type="line"/>
      <point x="481" y="500" type="line"/>
      <point x="459" y="500" type="line"/>
      <point x="360" y="27" type="line"/>
      <point x="262" y="500" type="line"/>
      <point x="240" y="500" type="line"/>
      <point x="143" y="27" type="line"/>
      <point x="46" y="500" type="line"/>
      <point x="24" y="500" type="line"/>
      <point x="132" y="0" type="line"/>
    </contour>
  </outline>
</glyph>
<glyph name="x" format="1">
  <advance width="345"/>
  <unicode hex="0078"/>
  <outline>
    <contour>
      <point x="49" y="0" type="line"/>
      <point x="169" y="233" type="line"/>
      <point x="289" y="0" type="line"/>
      <point x="313" y="0" type="line"/>
      <point x="180" y="250" type="line"/>
      <point x="313" y="500" type="line"/>
      <point x="289" y="500" type="line"/>
      <point x="169" y="267" type="line"/>
      <point x="49" y="500" type="line"/>
      <point x="24" y="500" type="line"/>
      <point x="158" y="250" type="line"/>
      <point x="24" y="0" type="line"/>
    </contour>
  </outline>
</glyph>
<glyph name="y" format="1">
  <advance width="329"/>
  <unicode hex="0079"/>
  <outline>
    <contour>
      <point x="50" y="-200" type="line"/>
      <point x="104" y="-200"/>
      <point x="125" y="-185"/>
      <point x="158" y="-62" type="curve" smooth="yes"/>
      <point x="305" y="500" type="line"/>
      <point x="282" y="500" type="line"/>
      <point x="162" y="27" type="line"/>
      <point x="41" y="500" type="line"/>
      <point x="18" y="500" type="line"/>
      <point x="151" y="0" type="line"/>
      <point x="116" y="-147"/>
      <point x="106" y="-178"/>
      <point x="50" y="-179" type="curve"/>
      <point x="39" y="-179" type="line"/>
      <point x="39" y="-200" type="line"/>
    </contour>
  </outline>
</glyph>
<glyph name="z" format="1">
  <advance width="332"/>
  <unicode hex="007A"/>
  <outline>
    <contour>
      <point x="298" y="0" type="line"/>
      <point x="298" y="21" type="line"/>
      <point x="57" y="21" type="line"/>
      <point x="300" y="479" type="line"/>
      <point x="300" y="500" type="line"/>
      <point x="34" y="500" type="line"/>
      <point x="34" y="479" type="line"/>
      <point x="275" y="479" type="line"/>
      <point x="32" y="21" type="line"/>
      <point x="32" y="0" type="line"/>
    </contour>
  </outline>
</glyph>
<glyph name="copyright" format="1">
  <advance width="882"/>
  <unicode hex="00A9"/>
  <outline>
    <contour>
      <point x="519" y="-71"/>
      <point x="633" y="73"/>
      <point x="633" y="290" type="curve" smooth="yes"/>
      <point x="633" y="507"/>
      <point x="519" y="651"/>
      <point x="348" y="651" type="curve" smooth="yes"/>
      <point x="177" y="651"/>
      <point x="63" y="507"/>
      <point x="63" y="290" type="curve" smooth="yes"/>
      <point x="63" y="73"/>
      <point x="177" y="-71"/>
      <point x="348" y="-71" type="curve" smooth="yes"/>
    </contour>
    <contour>
      <point x="189" y="-50"/>
      <point x="83" y="86"/>
      <point x="83" y="290" type="curve" smooth="yes"/>
      <point x="83" y="494"/>
      <point x="189" y="630"/>
      <point x="348" y="630" type="curve" smooth="yes"/>
      <point x="507" y="630"/>
      <point x="613" y="494"/>
      <point x="613" y="290" type="curve" smooth="yes"/>
      <point x="613" y="86"/>
      <point x="507" y="-50"/>
      <point x="348" y="-50" type="curve" smooth="yes"/>
    </contour>
    <component base="C" xOffset="236" yOffset="111" xScale="0.5" yScale="0.5"/>
  </outline>
</glyph>
<glyph name="registered" format="1">
  <advance width="882"/>
  <unicode hex="00AE"/>
  <outline>
    <contour>
      <point x="519" y="-72"/>
      <point x="633" y="72"/>
      <point x="633" y="289" type="curve" smooth="yes"/>
      <point x="633" y="506"/>
      <point x="519" y="650"/>
      <point x="348" y="650" type="curve" smooth="yes"/>
      <point x="177" y="650"/>
      <point x="63" y="506"/>
      <point x="63" y="289" type="curve" smooth="yes"/>
      <point x="63" y="72"/>
      <point x="177" y="-72"/>
      <point x="348" y="-72" type="curve" smooth="yes"/>
    </contour>
    <contour>
      <point x="189" y="-51"/>
      <point x="83" y="85"/>
      <point x="83" y="289" type="curve" smooth="yes"/>
      <point x="83" y="493"/>
      <point x="189" y="629"/>
      <point x="348" y="629" type="curve" smooth="yes"/>
      <point x="507" y="629"/>
      <point x="613" y="493"/>
      <point x="613" y="289" type="curve" smooth="yes"/>
      <point x="613" y="85"/>
      <point x="507" y="-51"/>
      <point x="348" y="-51" type="curve" smooth="yes"/>
    </contour>
    <component base="R" xOffset="265" yOffset="130" xScale="0.45" yScale="0.45"/>
  </outline>
</glyph>
<glyph name="thorn" format="1">
  <advance width="365"/>
  <unicode hex="00FE"/>
  <outline>
    <contour>
      <point x="56" y="-167" type="line"/>
      <point x="78" y="-167" type="line"/>
      <point x="78" y="725" type="line"/>
      <point x="56" y="725" type="line"/>
    </contour>
    <component base="b.bowl" xOffset="63"/>
  </outline>
</glyph>
<glyph name="idotless" format="1">
  <advance width="150"/>
  <unicode hex="0131"/>
  <outline>
    <contour>
      <point x="86" y="0" type="line"/>
      <point x="86" y="500" type="line"/>
      <point x="64" y="500" type="line"/>
      <point x="64" y="0" type="line"/>
    </contour>
    <contour>
      <point x="75" y="509" type="move" name="top"/>
    </contour>
  </outline>
</glyph>
<glyph name="caron" format="1">
  <advance width="284"/>
  <unicode hex="02C7"/>
  <outline>
    <contour>
      <point x="121" y="550" type="line"/>
      <point x="161" y="550" type="line"/>
      <point x="244" y="669" type="line"/>
      <point x="211" y="669" type="line"/>
      <point x="142" y="571" type="line"/>
      <point x="73" y="669" type="line"/>
      <point x="40" y="669" type="line"/>
    </contour>
    <contour>
      <point x="142" y="503" type="move" name="_top"/>
    </contour>
  </outline>
</glyph>
<glyph name="circumflexcomb" format="1">
  <advance width="284"/>
  <unicode hex="0302"/>
  <outline>
    <contour>
      <point x="63" y="550" type="line"/>
      <point x="142" y="652" type="line"/>
      <point x="221" y="550" type="line"/>
      <point x="244" y="550" type="line"/>
      <point x="161" y="669" type="line"/>
      <point x="121" y="669" type="line"/>
      <point x="40" y="550" type="line"/>
    </contour>
    <contour>
      <point x="142" y="503" type="move" name="_top"/>
    </contour>
  </outline>
</glyph>
<glyph name="tildecomb" format="1">
  <advance width="223"/>
  <unicode hex="0303"/>
  <outline>
    <contour>
      <point x="0" y="599" type="line"/>
      <point x="3" y="619"/>
      <point x="32" y="638"/>
      <point x="62" y="638" type="curve" smooth="yes"/>
      <point x="85" y="638"/>
      <point x="104" y="628"/>
      <point x="121" y="617" type="curve" smooth="yes"/>
      <point x="136" y="607"/>
      <point x="150" y="599"/>
      <point x="166" y="599" type="curve" smooth="yes"/>
      <point x="189" y="599"/>
      <point x="203" y="613"/>
      <point x="222" y="634" type="curve"/>
      <point x="223" y="607" type="line"/>
      <point x="208" y="591"/>
      <point x="191" y="578"/>
      <point x="166" y="578" type="curve" smooth="yes"/>
      <point x="143" y="578"/>
      <point x="125" y="589"/>
      <point x="109" y="599" type="curve" smooth="yes"/>
      <point x="94" y="608"/>
      <point x="78" y="617"/>
      <point x="60" y="617" type="curve" smooth="yes"/>
      <point x="40" y="617"/>
      <point x="13" y="605"/>
      <point x="0" y="578" type="curve"/>
    </contour>
    <contour>
      <point x="111" y="500" type="move" name="_top"/>
    </contour>
  </outline>
</glyph>
<glyph name="ringcomb" format="1">
  <advance width="188"/>
  <unicode hex="030A"/>
  <outline>
    <contour>
      <point x="147" y="544"/>
      <point x="188" y="587"/>
      <point x="188" y="641" type="curve" smooth="yes"/>
      <point x="188" y="695"/>
      <point x="147" y="738"/>
      <point x="94" y="738" type="curve" smooth="yes"/>
      <point x="42" y="738"/>
      <point x="0" y="695"/>
      <point x="0" y="641" type="curve" smooth="yes"/>
      <point x="0" y="587"/>
      <point x="42" y="544"/>
      <point x="94" y="544" type="curve" smooth="yes"/>
    </contour>
    <contour>
      <point x="54" y="565"/>
      <point x="21" y="598"/>
      <point x="21" y="641" type="curve" smooth="yes"/>
      <point x="21" y="684"/>
      <point x="54" y="717"/>
      <point x="94" y="717" type="curve" smooth="yes"/>
      <point x="134" y="717"/>
      <point x="167" y="684"/>
      <point x="167" y="641" type="curve" smooth="yes"/>
      <point x="167" y="598"/>
      <point x="134" y="565"/>
      <point x="94" y="565" type="curve" smooth="yes"/>
    </contour>
    <contour>
      <point x="94" y="500" type="move" name="_top"/>
    </contour>
  </outline>
</glyph>
<glyph name="emdash" format="1">
  <advance width="352"/>
  <unicode hex="2014"/>
  <outline>
    <contour>
      <point x="334" y="251" type="line"/>
      <point x="334" y="272" type="line"/>
      <point x="18" y="272" type="line"/>
      <point x="18" y="251" type="line"/>
    </contour>
  </outline>
</glyph>
<glyph name="quotedblleft" format="1">
  <advance width="160"/>
  <unicode hex="201C"/>
  <outline>
    <contour>
      <point x="79" y="507" type="line"/>
      <point x="25" y="697" type="line"/>
      <point x="0" y="697" type="line"/>
      <point x="60" y="507" type="line"/>
    </contour>
    <contour>
      <point x="160" y="507" type="line"/>
      <point x="108" y="697" type="line"/>
      <point x="82" y="697" type="line"/>
      <point x="141" y="507" type="line"/>
    </contour>
  </outline>
</glyph>
<glyph name="a.alt" format="1">
  <advance width="455"/>
  <outline>
    <contour>
      <point x="321" y="0" type="line"/>
      <point x="321" y="500" type="line"/>
      <point x="299" y="500" type="line"/>
      <point x="299" y="0" type="line"/>
    </contour>
    <component base="b.bowl" xOffset="315" xScale="-1"/>
  </outline>
</glyph>
<glyph name="b.bowl" format="1">
  <advance width="260"/>
  <outline>
    <contour>
      <point x="207" y="-8"/>
      <point x="260" y="50"/>
      <point x="260" y="138" type="curve" smooth="yes"/>
      <point x="260" y="362" type="line" smooth="yes"/>
      <point x="260" y="450"/>
      <point x="208" y="508"/>
      <point x="130" y="508" type="curve" smooth="yes"/>
      <point x="51" y="508"/>
      <point x="-2" y="450"/>
      <point x="-2" y="362" type="curve" smooth="yes"/>
      <point x="-2" y="138" type="line" smooth="yes"/>
      <point x="-2" y="50"/>
      <point x="50" y="-8"/>
      <point x="128" y="-8" type="curve" smooth="yes"/>
    </contour>
    <contour>
      <point x="60" y="13"/>
      <point x="15" y="62"/>
      <point x="15" y="135" type="curve" smooth="yes"/>
      <point x="15" y="365" type="line" smooth="yes"/>
      <point x="15" y="438"/>
      <point x="60" y="487"/>
      <point x="127" y="487" type="curve" smooth="yes"/>
      <point x="194" y="487"/>
      <point x="238" y="438"/>
      <point x="238" y="365" type="curve" smooth="yes"/>
      <point x="238" y="135" type="line" smooth="yes"/>
      <point x="238" y="62"/>
      <point x="194" y="13"/>
      <point x="127" y="13" type="curve" smooth="yes"/>
    </contour>
  </outline>
</glyph>
